<svg xmlns="http://www.w3.org/2000/svg" xmlns:xlink="http://www.w3.org/1999/xlink" width="500" zoomAndPan="magnify" viewBox="0 0 375 374.999991" height="500" preserveAspectRatio="xMidYMid meet" version="1.0"><defs><clipPath id="4f56723c4d"><path d="M 53.460938 1 L 298.902344 1 L 298.902344 249.761719 L 53.460938 249.761719 Z M 53.460938 1 " clip-rule="nonzero"/></clipPath><clipPath id="c2d2ef0f92"><path d="M 277.832031 18.859375 L 321 18.859375 L 321 62 L 277.832031 62 Z M 277.832031 18.859375 " clip-rule="nonzero"/></clipPath><clipPath id="d56ec7007c"><path d="M 0.1875 201.683594 L 44 201.683594 L 44 245 L 0.1875 245 Z M 0.1875 201.683594 " clip-rule="nonzero"/></clipPath><clipPath id="33a805e712"><rect x="0" width="321" y="0" height="250"/></clipPath></defs><g transform="matrix(1, 0, 0, 1, 27, 63)"><g clip-path="url(#33a805e712)"><path fill="#7f7f7f" d="M 297.582031 87.5625 L 297.582031 222.5 C 297.582031 236.648438 286.113281 248.113281 271.96875 248.113281 L 80.816406 248.113281 C 66.671875 248.113281 55.203125 236.648438 55.203125 222.5 L 55.203125 87.5625 L 150.847656 11.050781 C 165.78125 -0.898438 187.003906 -0.898438 201.9375 11.050781 Z M 297.582031 87.5625 " fill-opacity="1" fill-rule="nonzero"/><path fill="#fdf5ff" d="M 186.160156 75.851562 C 189.144531 78.835938 187.402344 85.804688 182.4375 90.769531 C 177.46875 95.734375 170.5 97.476562 167.519531 94.496094 C 164.535156 91.515625 166.273438 84.542969 171.246094 79.578125 C 173.882812 76.941406 177.140625 75.113281 180.183594 74.5625 C 180.691406 74.46875 181.339844 74.386719 182.042969 74.386719 C 183.417969 74.386719 185.011719 74.695312 186.160156 75.851562 Z M 259.476562 15.925781 L 259.476562 118.046875 L 203.789062 162.601562 C 187.769531 175.40625 165.015625 175.40625 148.996094 162.601562 L 93.300781 118.042969 L 93.300781 15.925781 Z M 220.769531 83.132812 C 220.25 75.851562 217.578125 68.621094 213.25 62.792969 C 203.625 49.824219 186.742188 43.304688 171.246094 46.574219 C 157.574219 49.449219 145.371094 59.890625 141.566406 71.960938 C 134.835938 93.308594 144.558594 116.933594 163.699219 125.742188 C 169.015625 128.183594 174.710938 129.394531 180.351562 129.394531 C 187.875 129.394531 195.296875 127.246094 201.566406 123.035156 C 203.292969 121.878906 204.003906 119.613281 203.042969 117.777344 C 201.914062 115.613281 199.199219 114.972656 197.238281 116.304688 C 188.546875 122.210938 176.976562 123.042969 167.042969 118.46875 C 151.496094 111.316406 143.65625 91.945312 149.195312 74.367188 C 152.175781 64.925781 161.917969 56.710938 172.894531 54.398438 C 185.199219 51.8125 199.148438 57.21875 206.824219 67.558594 C 210.257812 72.183594 212.375 77.914062 212.785156 83.695312 C 213.140625 88.742188 212.367188 95.402344 209.128906 98.976562 C 207.546875 100.730469 205.332031 101.332031 203.054688 100.628906 C 200.234375 99.765625 197.9375 96.457031 196.828125 93.890625 C 193.578125 86.34375 196.890625 78.050781 198.460938 74.835938 C 199.878906 71.933594 197.335938 68.773438 194.203125 69.222656 C 192.578125 69.457031 192.269531 70.230469 190.714844 69.464844 C 189.316406 68.777344 188.199219 67.582031 186.640625 67.085938 C 184.105469 66.273438 181.367188 66.214844 178.761719 66.6875 C 174.082031 67.53125 169.398438 70.105469 165.582031 73.921875 C 157.1875 82.316406 155.550781 93.84375 161.855469 100.152344 C 164.445312 102.738281 167.902344 103.992188 171.664062 103.992188 C 177.085938 103.992188 183.132812 101.390625 188.105469 96.421875 C 188.480469 96.042969 189.117188 96.164062 189.316406 96.660156 C 189.371094 96.792969 189.425781 96.921875 189.480469 97.058594 C 190.390625 99.15625 193.878906 106.183594 200.707031 108.28125 C 205.917969 109.878906 211.414062 108.375 215.058594 104.351562 C 221.089844 97.683594 221.0625 87.292969 220.769531 83.132812 Z M 220.769531 83.132812 " fill-opacity="1" fill-rule="nonzero"/><g clip-path="url(#4f56723c4d)"><path fill="#000000" d="M 299.316406 87.503906 C 299.316406 87.46875 299.316406 87.433594 299.316406 87.402344 C 299.3125 87.363281 299.300781 87.324219 299.296875 87.285156 C 299.289062 87.242188 299.28125 87.199219 299.269531 87.160156 C 299.265625 87.128906 299.257812 87.101562 299.25 87.070312 C 299.238281 87.035156 299.222656 87 299.210938 86.960938 C 299.195312 86.917969 299.175781 86.875 299.160156 86.835938 C 299.148438 86.808594 299.136719 86.785156 299.125 86.757812 C 299.105469 86.722656 299.082031 86.695312 299.0625 86.660156 C 299.039062 86.617188 299.011719 86.578125 298.980469 86.539062 C 298.96875 86.519531 298.957031 86.496094 298.941406 86.476562 C 298.941406 86.472656 298.9375 86.472656 298.933594 86.46875 C 298.914062 86.441406 298.886719 86.421875 298.863281 86.394531 C 298.828125 86.355469 298.792969 86.320312 298.753906 86.285156 C 298.730469 86.261719 298.707031 86.238281 298.679688 86.214844 C 298.675781 86.210938 298.675781 86.210938 298.671875 86.207031 L 261.21875 56.246094 L 261.21875 15.925781 C 261.21875 14.964844 260.4375 14.183594 259.476562 14.183594 L 208.644531 14.183594 L 204.871094 11.167969 C 196.820312 4.726562 186.707031 1.179688 176.394531 1.179688 C 166.082031 1.179688 155.964844 4.726562 147.910156 11.167969 L 144.136719 14.183594 L 93.300781 14.183594 C 92.335938 14.183594 91.558594 14.964844 91.558594 15.925781 L 91.558594 56.25 L 54.117188 86.207031 C 54.113281 86.210938 54.109375 86.210938 54.109375 86.214844 C 54.082031 86.234375 54.058594 86.261719 54.035156 86.28125 C 53.992188 86.320312 53.953125 86.359375 53.917969 86.402344 C 53.894531 86.425781 53.875 86.445312 53.855469 86.464844 C 53.851562 86.46875 53.847656 86.472656 53.84375 86.476562 C 53.828125 86.496094 53.820312 86.515625 53.808594 86.535156 C 53.773438 86.578125 53.746094 86.625 53.714844 86.671875 C 53.699219 86.699219 53.679688 86.726562 53.664062 86.753906 C 53.652344 86.78125 53.640625 86.804688 53.628906 86.832031 C 53.609375 86.878906 53.589844 86.925781 53.570312 86.972656 C 53.5625 87.003906 53.546875 87.035156 53.535156 87.066406 C 53.527344 87.097656 53.523438 87.125 53.515625 87.15625 C 53.503906 87.203125 53.496094 87.25 53.488281 87.296875 C 53.484375 87.328125 53.476562 87.363281 53.472656 87.398438 C 53.46875 87.429688 53.46875 87.464844 53.46875 87.5 C 53.46875 87.519531 53.460938 87.542969 53.460938 87.566406 L 53.460938 220.648438 C 53.460938 236.753906 66.566406 249.855469 82.671875 249.855469 L 270.113281 249.855469 C 286.21875 249.855469 299.324219 236.753906 299.324219 220.648438 L 299.324219 87.566406 C 299.324219 87.542969 299.316406 87.523438 299.316406 87.503906 Z M 261.21875 60.703125 L 294.796875 87.566406 L 261.21875 114.425781 Z M 150.085938 13.886719 C 157.523438 7.9375 166.867188 4.660156 176.394531 4.660156 C 185.917969 4.660156 195.257812 7.9375 202.695312 13.886719 L 203.070312 14.183594 L 149.714844 14.183594 Z M 95.039062 17.667969 L 257.734375 17.667969 L 257.734375 117.210938 L 253.949219 120.238281 L 202.699219 161.238281 C 195.726562 166.816406 187.078125 170.042969 178.175781 170.425781 C 177.992188 170.433594 177.804688 170.433594 177.617188 170.4375 C 177.210938 170.449219 176.800781 170.464844 176.394531 170.464844 C 175.308594 170.464844 174.230469 170.417969 173.15625 170.332031 C 172.835938 170.308594 172.515625 170.277344 172.199219 170.242188 C 165.394531 169.558594 158.820312 167.21875 153.121094 163.445312 C 152.078125 162.753906 151.066406 162.023438 150.085938 161.238281 L 95.039062 117.203125 Z M 91.558594 60.710938 L 91.558594 114.417969 L 57.992188 87.566406 Z M 56.945312 91.1875 L 92.203125 119.394531 C 92.207031 119.398438 92.207031 119.398438 92.210938 119.402344 L 133.566406 152.484375 L 137.921875 155.964844 L 61.84375 235.722656 C 58.765625 231.480469 56.945312 226.273438 56.945312 220.648438 Z M 270.113281 246.375 L 82.671875 246.375 C 75.367188 246.375 68.765625 243.308594 64.078125 238.402344 C 64.113281 238.371094 64.148438 238.347656 64.179688 238.316406 L 140.648438 158.148438 L 147.910156 163.957031 C 155.964844 170.398438 166.078125 173.945312 176.394531 173.945312 C 177.683594 173.945312 178.96875 173.890625 180.25 173.78125 C 189.203125 173.015625 197.828125 169.59375 204.875 163.957031 L 212.136719 158.148438 L 288.605469 238.316406 C 288.636719 238.347656 288.671875 238.371094 288.707031 238.402344 C 284.019531 243.308594 277.417969 246.375 270.113281 246.375 Z M 295.839844 220.648438 C 295.839844 226.273438 294.019531 231.480469 290.945312 235.722656 L 214.867188 155.964844 L 295.839844 91.1875 Z M 182.042969 72.648438 C 181.34375 72.648438 180.613281 72.714844 179.875 72.847656 C 176.488281 73.460938 172.894531 75.464844 170.011719 78.347656 C 167.390625 80.96875 165.507812 84.167969 164.710938 87.359375 C 163.847656 90.8125 164.421875 93.863281 166.285156 95.726562 C 167.582031 97.023438 169.449219 97.695312 171.628906 97.695312 C 172.585938 97.695312 173.601562 97.566406 174.652344 97.304688 C 177.84375 96.507812 181.046875 94.625 183.667969 92.003906 C 189.386719 86.28125 191.09375 78.320312 187.394531 74.621094 C 186.101562 73.328125 184.253906 72.648438 182.042969 72.648438 Z M 181.203125 89.539062 C 179.054688 91.691406 176.359375 93.289062 173.808594 93.925781 C 171.570312 94.484375 169.726562 94.242188 168.75 93.265625 C 168.75 93.265625 168.75 93.265625 168.746094 93.265625 C 167.769531 92.285156 167.527344 90.441406 168.089844 88.203125 C 168.726562 85.652344 170.324219 82.957031 172.472656 80.808594 C 174.867188 78.417969 177.789062 76.765625 180.496094 76.273438 C 181.027344 76.179688 181.550781 76.128906 182.042969 76.128906 C 183.328125 76.128906 184.296875 76.449219 184.929688 77.082031 C 186.949219 79.101562 185.761719 84.984375 181.203125 89.539062 Z M 162.96875 127.320312 C 168.386719 129.816406 174.398438 131.132812 180.347656 131.132812 C 180.351562 131.132812 180.351562 131.132812 180.351562 131.132812 C 188.386719 131.132812 196.058594 128.832031 202.539062 124.480469 C 205.058594 122.789062 205.9375 119.558594 204.585938 116.96875 C 203.824219 115.507812 202.472656 114.441406 200.886719 114.042969 C 199.300781 113.644531 197.613281 113.941406 196.257812 114.863281 C 188.070312 120.429688 177.152344 121.207031 167.769531 116.890625 C 153.003906 110.09375 145.578125 91.644531 150.859375 74.890625 C 153.65625 66.019531 162.863281 58.292969 173.253906 56.105469 C 184.914062 53.652344 198.140625 58.789062 205.425781 68.597656 C 208.664062 72.960938 210.660156 78.367188 211.046875 83.820312 C 211.363281 88.289062 210.710938 94.632812 207.835938 97.808594 C 206.707031 99.054688 205.195312 99.464844 203.566406 98.964844 C 201.457031 98.316406 199.46875 95.601562 198.429688 93.199219 C 195.460938 86.316406 198.558594 78.601562 200.027344 75.601562 C 200.953125 73.707031 200.765625 71.554688 199.523438 69.847656 C 198.242188 68.089844 196.109375 67.191406 193.957031 67.5 C 193.242188 67.601562 192.71875 67.785156 192.335938 67.917969 C 191.863281 68.085938 191.863281 68.085938 191.484375 67.902344 C 191.03125 67.675781 190.570312 67.355469 190.082031 67.015625 C 189.265625 66.445312 188.339844 65.796875 187.171875 65.425781 C 184.511719 64.578125 181.496094 64.421875 178.449219 64.972656 C 173.425781 65.882812 168.417969 68.625 164.351562 72.6875 C 160.023438 77.015625 157.230469 82.304688 156.480469 87.574219 C 155.707031 93.03125 157.179688 97.9375 160.628906 101.386719 C 163.46875 104.230469 167.285156 105.730469 171.664062 105.730469 C 177.351562 105.730469 183.347656 103.164062 188.296875 98.644531 C 189.71875 101.585938 193.460938 107.875 200.191406 109.945312 C 206.058594 111.746094 212.25 110.046875 216.351562 105.515625 C 222.835938 98.355469 222.8125 87.390625 222.503906 83.011719 C 221.964844 75.398438 219.175781 67.847656 214.648438 61.75 C 204.625 48.25 187.039062 41.464844 170.886719 44.867188 C 156.628906 47.871094 143.890625 58.796875 139.90625 71.4375 C 132.917969 93.605469 143.046875 118.152344 162.96875 127.320312 Z M 143.226562 72.484375 C 146.851562 60.984375 158.519531 51.03125 171.605469 48.277344 C 174.15625 47.738281 176.746094 47.476562 179.332031 47.476562 C 191.800781 47.476562 204.207031 53.535156 211.851562 63.828125 C 215.988281 69.398438 218.535156 76.296875 219.03125 83.257812 C 219.308594 87.191406 219.351562 97.011719 213.769531 103.179688 C 210.582031 106.699219 205.773438 108.015625 201.214844 106.613281 C 195.105469 104.738281 191.914062 98.296875 191.082031 96.367188 C 191.03125 96.246094 190.980469 96.128906 190.929688 96.003906 C 190.617188 95.230469 189.941406 94.671875 189.128906 94.507812 C 188.308594 94.339844 187.464844 94.597656 186.871094 95.191406 C 182.386719 99.675781 176.839844 102.25 171.664062 102.25 C 168.230469 102.25 165.265625 101.101562 163.089844 98.921875 C 160.433594 96.269531 159.3125 92.410156 159.929688 88.066406 C 160.570312 83.535156 163.015625 78.949219 166.816406 75.148438 C 170.382812 71.582031 174.734375 69.183594 179.070312 68.398438 C 181.558594 67.949219 183.996094 68.066406 186.113281 68.742188 C 186.777344 68.957031 187.414062 69.398438 188.089844 69.871094 C 188.660156 70.269531 189.253906 70.683594 189.945312 71.023438 C 191.632812 71.855469 192.703125 71.480469 193.488281 71.207031 C 193.800781 71.097656 194.074219 71 194.453125 70.945312 C 195.492188 70.796875 196.300781 71.339844 196.707031 71.898438 C 196.933594 72.207031 197.402344 73.039062 196.898438 74.070312 C 195.21875 77.5 191.691406 86.371094 195.234375 94.578125 C 196.546875 97.625 199.160156 101.253906 202.542969 102.292969 C 205.449219 103.1875 208.390625 102.382812 210.417969 100.144531 C 214.960938 95.132812 214.707031 86.195312 214.519531 83.574219 C 214.089844 77.464844 211.851562 71.410156 208.222656 66.523438 C 200.15625 55.65625 185.480469 49.972656 172.539062 52.699219 C 160.972656 55.132812 150.695312 63.828125 147.535156 73.84375 C 141.738281 92.242188 149.984375 112.539062 166.316406 120.054688 C 176.800781 124.878906 189.023438 123.992188 198.21875 117.742188 C 198.75 117.382812 199.414062 117.265625 200.039062 117.421875 C 200.671875 117.578125 201.191406 117.992188 201.5 118.582031 C 202.019531 119.578125 201.625 120.898438 200.597656 121.589844 C 194.691406 125.554688 187.691406 127.652344 180.351562 127.652344 C 180.351562 127.652344 180.351562 127.652344 180.347656 127.652344 C 174.898438 127.652344 169.390625 126.445312 164.425781 124.160156 C 146.066406 115.710938 136.753906 93.011719 143.226562 72.484375 Z M 143.226562 72.484375 " fill-opacity="1" fill-rule="nonzero"/></g><g clip-path="url(#c2d2ef0f92)"><path fill="#000000" d="M 299.320312 18.859375 C 297.226562 36.554688 295.527344 38.253906 277.832031 40.347656 C 277.867188 40.351562 277.902344 40.355469 277.941406 40.359375 C 295.535156 42.449219 297.230469 44.175781 299.320312 61.835938 C 301.414062 44.140625 303.113281 42.441406 320.808594 40.347656 C 303.113281 38.253906 301.414062 36.554688 299.320312 18.859375 Z M 299.320312 18.859375 " fill-opacity="1" fill-rule="nonzero"/></g><g clip-path="url(#d56ec7007c)"><path fill="#000000" d="M 21.675781 201.683594 C 19.582031 219.382812 17.882812 221.082031 0.1875 223.175781 C 0.222656 223.179688 0.257812 223.183594 0.296875 223.1875 C 17.890625 225.277344 19.585938 227.003906 21.675781 244.664062 C 23.769531 226.96875 25.46875 225.269531 43.164062 223.175781 C 25.46875 221.082031 23.769531 219.382812 21.675781 201.683594 Z M 21.675781 201.683594 " fill-opacity="1" fill-rule="nonzero"/></g></g></g></svg>